<svg xmlns="http://www.w3.org/2000/svg" version="1.1" xmlns:xlink="http://www.w3.org/1999/xlink" xmlns:svgjs="http://svgjs.dev/svgjs" width="1500" height="2917" viewBox="0 0 1500 2917"><g transform="matrix(1,0,0,1,-0.4518447757740205,1.180971659918896)"><svg viewBox="0 0 127 247" data-background-color="#ffffff" preserveAspectRatio="xMidYMid meet" height="2917" width="1500" xmlns="http://www.w3.org/2000/svg" xmlns:xlink="http://www.w3.org/1999/xlink"><g id="tight-bounds" transform="matrix(1,0,0,1,0.03825619101553457,-0.09999999999999432)"><svg viewBox="0 0 126.92348761796897 247.2" height="247.2" width="126.92348761796897"><g><svg viewBox="0 0 239.64666666666665 466.74305214737177" height="247.2" width="126.92348761796897"><g transform="matrix(1,0,0,1,0,219.54305214737178)"><svg viewBox="0 0 239.64666666666665 247.2" height="247.2" width="239.64666666666665"><g id="textblocktransform"><svg viewBox="0 0 239.64666666666665 247.2" height="247.2" width="239.64666666666665" id="textblock"><g><svg viewBox="0 0 239.64666666666665 247.2" height="247.2" width="239.64666666666665"><g transform="matrix(1,0,0,1,0,0)"><svg width="239.64666666666665" viewBox="0.95 -36 34.9 36" height="247.2" data-palette-color="#6230a3"><path d="M26.35-36L35.85-36 24.4-17.85 29.5 0 20 0 16.25-13.2 12.3-13.2 9.95 0 0.95 0 7.3-36 16.3-36 13.65-21 16.85-21 26.35-36Z" opacity="1" transform="matrix(1,0,0,1,0,0)" fill="#6230a3" class="wordmark-text-0" data-fill-palette-color="primary" id="text-0"></path></svg></g></svg></g></svg></g></svg></g><g transform="matrix(1,0,0,1,68.40979445964743,0)"><svg viewBox="0 0 102.82707774737179 102.82707774737179" height="102.82707774737179" width="102.82707774737179"><g><svg></svg></g><g id="icon-0"><svg viewBox="0 0 102.82707774737179 102.82707774737179" height="102.82707774737179" width="102.82707774737179"><g><path d="M0 51.414c0-28.395 23.019-51.414 51.414-51.414 28.395 0 51.414 23.019 51.413 51.414 0 28.395-23.019 51.414-51.413 51.413-28.395 0-51.414-23.019-51.414-51.413zM51.414 80.534c16.083 0 29.121-13.038 29.12-29.12 0-16.083-13.038-29.121-29.12-29.121-16.083 0-29.121 13.038-29.121 29.121 0 16.083 13.038 29.121 29.121 29.12z" data-fill-palette-color="tertiary" fill="#6230a3" stroke="transparent"></path></g><g transform="matrix(1,0,0,1,53.70293300966148,53.556447428924045)"><svg viewBox="0 0 -4.578788271951168 -4.285817110476303" height="-4.285817110476303" width="-4.578788271951168"><g><svg xmlns="http://www.w3.org/2000/svg" xmlns:xlink="http://www.w3.org/1999/xlink" version="1.1" x="0" y="0" viewBox="1.9434832299711795 3.863775423713763 60.116761333598774 56.270224576286246" enable-background="new 0 0 64 64" xml:space="preserve" height="-4.285817110476303" width="-4.578788271951168" class="icon-cg-0" data-fill-palette-color="accent" id="cg-0"><g fill="#fec200" data-fill-palette-color="accent"><path fill="#fec200" d="M60.966 27.477c-3.619-1.283-6.286-3.649-8.157-7.23-1.901-3.645-2.421-6.9-1.642-10.249 0.207-0.902-0.068-1.545-0.859-2.028-0.66-0.402-1.325-0.8-1.985-1.198L47.932 6.54c-1.003-0.601-2.138-1.278-3.217-1.943-0.804-0.504-1.558-0.301-1.926-0.097-0.165 0.093-0.343 0.212-0.512 0.351l-0.182 0.144c-0.631 0.504-1.342 1.071-2.091 1.486-0.313 0.174-0.622 0.313-0.931 0.423-2.794 0.982-5.41 1.405-7.772 1.266-3.255-0.195-6.113-1.422-8.737-3.751-0.859-0.766-1.613-0.627-2.29-0.254-1.833 1.067-3.729 2.117-5.677 3.145-0.834 0.461-1.105 1.05-0.944 2.04 0.999 5.931-1.177 10.939-6.655 15.311-0.254 0.203-0.533 0.389-0.855 0.563-0.745 0.415-1.609 0.72-2.371 0.986l-0.207 0.072c-0.22 0.076-0.411 0.161-0.576 0.254-0.648 0.356-0.94 0.872-0.944 1.672-0.008 1.278-0.034 2.599-0.055 3.768l-0.004 0.241c-0.017 0.847-0.034 1.689-0.042 2.523-0.017 0.931 0.385 1.507 1.27 1.816 3.243 1.113 5.723 3.281 7.802 6.828 2.045 3.484 2.633 7.002 1.808 10.74-0.178 0.779 0.089 1.372 0.813 1.816 2.159 1.321 3.971 2.426 5.821 3.509 0.199 0.119 0.508 0.275 0.876 0.296 0.271 0.017 0.525-0.042 0.762-0.174 0.165-0.093 0.334-0.224 0.5-0.389 0.605-0.622 1.338-1.173 2.176-1.638 2.472-1.367 5.897-1.981 9.283-1.647 3.471 0.343 6.477 1.626 8.246 3.522 0.292 0.313 0.707 0.677 1.312 0.711 0.034 0.004 0.072 0.004 0.106 0.004 0.356 0 0.732-0.119 1.194-0.373 1.003-0.571 1.994-1.122 2.65-1.486 0.66-0.364 1.655-0.91 2.705-1.482 1.308-0.72 1.249-1.647 1.058-2.375-0.665-2.51-0.157-5.736 1.393-8.856 1.52-3.061 3.827-5.609 6.324-6.993 0.842-0.466 1.697-0.796 2.561-0.982 0.377-0.085 0.914-0.271 1.177-0.864 0.102-0.224 0.152-0.478 0.165-0.809 0.068-2.303 0.093-4.623 0.114-6.786C62.071 28.286 61.711 27.744 60.966 27.477zM33.835 49.282v-7.374c2.07 0.055 4.098 0.207 6.058 0.444-0.445 1.49-0.995 2.883-1.638 4.136-0.415 0.813-0.864 1.541-1.333 2.184-0.957 1.308-2.007 2.244-3.086 2.752V49.282zM33.835 38.234V33.78h7.446c-0.076 1.71-0.254 3.374-0.538 4.961C38.521 38.466 36.214 38.293 33.835 38.234zM33.835 30.22v-4.453c2.379-0.059 4.686-0.233 6.909-0.508 0.284 1.587 0.461 3.251 0.538 4.961H33.835zM40.477 14.041c2.955 1.393 5.512 3.492 7.455 6.083-0.868 0.233-1.757 0.444-2.671 0.639-0.559 0.123-1.126 0.233-1.706 0.339-0.284-1.003-0.605-1.968-0.965-2.879C41.984 16.674 41.273 15.269 40.477 14.041zM33.835 12.576c1.079 0.508 2.129 1.444 3.086 2.756 0.47 0.639 0.919 1.367 1.333 2.18 0.643 1.253 1.194 2.642 1.638 4.136-1.96 0.237-3.988 0.389-6.058 0.445v-7.374V12.576zM22.719 33.78h7.446v4.453c-2.379 0.059-4.686 0.233-6.909 0.508C22.973 37.154 22.791 35.491 22.719 33.78zM22.719 30.22c0.072-1.71 0.254-3.374 0.538-4.961 2.222 0.275 4.53 0.449 6.909 0.508v4.453H22.719zM24.103 21.648c0.449-1.494 0.999-2.883 1.638-4.136 0.415-0.813 0.864-1.541 1.333-2.18 0.957-1.312 2.011-2.248 3.09-2.756v2.142 7.374C28.091 22.037 26.063 21.885 24.103 21.648zM23.523 14.041c-0.796 1.228-1.507 2.633-2.121 4.182-0.356 0.91-0.677 1.875-0.961 2.879-0.576-0.106-1.143-0.216-1.702-0.339-0.914-0.195-1.803-0.406-2.671-0.639C18.007 17.533 20.568 15.434 23.523 14.041zM16.538 24.057c1.003 0.241 2.032 0.457 3.086 0.652-0.305 1.748-0.504 3.594-0.58 5.512H14.71h-2.536c0.224-2.426 0.881-4.72 1.892-6.815C14.87 23.638 15.696 23.858 16.538 24.057zM14.71 33.78h4.335c0.076 1.918 0.275 3.763 0.58 5.512-1.054 0.195-2.083 0.411-3.086 0.652-0.842 0.199-1.668 0.419-2.472 0.652-1.012-2.095-1.668-4.39-1.892-6.815H14.71zM18.744 43.237c0.559-0.123 1.122-0.233 1.698-0.339 0.284 1.008 0.605 1.968 0.965 2.879 0.61 1.549 1.321 2.955 2.117 4.182-2.955-1.393-5.516-3.497-7.455-6.083C16.936 43.644 17.829 43.432 18.744 43.237zM30.165 51.424c-1.079-0.508-2.129-1.444-3.09-2.752-0.47-0.643-0.919-1.372-1.333-2.184-0.639-1.253-1.19-2.646-1.638-4.136 1.96-0.237 3.988-0.389 6.062-0.444v7.374V51.424zM40.477 49.96c0.796-1.228 1.507-2.633 2.112-4.182 0.36-0.91 0.682-1.871 0.965-2.879 0.576 0.106 1.143 0.216 1.702 0.339 0.919 0.195 1.808 0.406 2.675 0.639C45.989 46.463 43.432 48.567 40.477 49.96zM47.462 39.944c-1.003-0.241-2.032-0.457-3.086-0.652 0.305-1.748 0.5-3.594 0.58-5.512h4.335 2.536c-0.224 2.426-0.881 4.72-1.896 6.815C49.13 40.363 48.304 40.143 47.462 39.944zM49.291 30.22h-4.335c-0.08-1.918-0.275-3.763-0.58-5.512 1.054-0.195 2.083-0.411 3.086-0.652 0.842-0.199 1.668-0.419 2.468-0.652 1.016 2.095 1.672 4.39 1.896 6.815H49.291z" data-fill-palette-color="accent"></path></g></svg></g></svg></g></svg></g></svg></g><g></g></svg></g><defs></defs></svg><rect width="126.92348761796897" height="247.2" fill="none" stroke="none" visibility="hidden"></rect></g></svg></g></svg>